<svg xmlns="http://www.w3.org/2000/svg" viewBox="0 0 123.1 40"><defs><filter id="a" x="0" y="0" width="123.1" height="40" filterUnits="userSpaceOnUse" color-interpolation-filters="sRGB"><feFlood flood-color="#fff" result="bg"/><feBlend in="SourceGraphic" in2="bg"/></filter><mask id="b" x="0" y="0" width="123.1" height="40" maskUnits="userSpaceOnUse"><path d="m37 15.56.48 1.21c-.15.65-.27 1.32-.36 2l-.5-.92a18.69 18.69 0 0 1 .38-2.29ZM55.77.48c-.49 0-1 0-1.45.06l-.19.46c.5-.08 1-.15 1.51-.2Zm-2 .12c-.5.06-1 .13-1.48.22l-.29.67c.51-.14 1-.27 1.54-.38Zm-4.88 1.2a18.76 18.76 0 0 0-2.18 1L46.52 4a20.17 20.17 0 0 1 1.92-1.09Zm2.7-.8a16.86 16.86 0 0 0-1.88.53l-.4 1c.64-.28 1.3-.53 2-.75Zm-7.68 5a20 20 0 0 1 1.69-1.41l.2-1.26A19.1 19.1 0 0 0 44 4.6Zm-.78-.64a21.41 21.41 0 0 0-1.84 1.85l.17 1.38a21 21 0 0 1 1.6-1.79ZM56.32.49l-.11.26c.49 0 1-.05 1.48-.05s1 0 1.53.06a18.5 18.5 0 0 0-2.9-.27ZM37.06 23.72l-.23-.43a17.71 17.71 0 0 0 .58 2.39 19.17 19.17 0 0 1-.32-2Zm-.52-4.48v.65c0 .48 0 .95.06 1.42l.4.69v-1.87Zm1.69-7.3a15.94 15.94 0 0 0-.79 2.06l.47 1.21a19.77 19.77 0 0 1 .74-2Zm2.2-3.73a18.17 18.17 0 0 0-1.58 2.47l.41 1.25a21.48 21.48 0 0 1 1.36-2.26Zm13-6.54c-.52.13-1 .28-1.54.45l-.45 1.07c.53-.24 1.07-.45 1.62-.65Zm2.66 0c-.68.14-1.35.31-2 .5l.32-.77q.95-.19 1.92-.3ZM37.35 20.39l.54 1.13c-.08.73-.14 1.48-.15 2.23l-.48-.7v-.53c-.01-.72.02-1.43.09-2.13Zm8.27-14.91a22.56 22.56 0 0 1 2.3-1.55l-.42 1.49a22.75 22.75 0 0 0-2 1.55Zm4.74-1.78c-.63.32-1.23.66-1.82 1l.38-1.35c.63-.32 1.28-.62 1.94-.88Zm6.89-2.65c.5 0 1-.05 1.52-.05h.07l-.13.33c-.56 0-1.12.12-1.66.21ZM44.68 7.76a23.35 23.35 0 0 0-2 2.15l-.08-1.64a19 19 0 0 1 2.12-2.09Zm-6 9.87a25 25 0 0 0-.59 2.45l-.55-1.16a20.46 20.46 0 0 1 .57-2.49ZM37.75 25a22.67 22.67 0 0 0 .47 4 21.71 21.71 0 0 1-.89-4.58ZM62.4 1.31c-.56 0-1.12-.07-1.69-.07h-1.1l.1-.25a21.69 21.69 0 0 1 2.69.32ZM42 10.91c-.49.7-.94 1.42-1.36 2.16l-.36-1.52a21.62 21.62 0 0 1 1.63-2.37Zm-2 3.26a21.81 21.81 0 0 0-1 2.34l-.57-1.2a19.82 19.82 0 0 1 1.18-2.71ZM54.81 23c-1 4-3.43 5.73-8.13 5.73-5.54 0-7.58-2.31-6.83-7.68s3.44-7.67 9-7.67c4.69 0 6.64 1.71 6.52 5.72H51c-.08-1.77-.86-2.54-2.6-2.54-2.48 0-3.73 1.36-4.17 4.49s.43 4.49 2.91 4.49a3.18 3.18 0 0 0 3.3-2.54Zm10.34 5.73c-2.15 0-3.63-.54-4.53-1.69l-.79 1.39h-3.42l2.9-20.63h4.37l-1 6.94a7.14 7.14 0 0 1 4.59-1.33c4.52 0 6.11 2.3 5.36 7.67s-3 7.67-7.5 7.68Zm3.16-7.68c.44-3.13-.35-4.49-2.62-4.49s-3.44 1.44-3.88 4.52.35 4.49 2.62 4.49 3.44-1.36 3.88-4.49Z" filter="url(#a)"/></mask></defs><g data-name="Layer 2"><g mask="url(#b)" data-name="Layer 1"><path d="M76 20A20 20 0 1 1 56 0a20 20 0 0 1 20 20Zm-65.26 3a3.18 3.18 0 0 1-3.31 2.54c-2.48 0-3.35-1.36-2.91-4.49s1.69-4.49 4.17-4.49c1.74 0 2.52.77 2.6 2.54h4.37c.12-4-1.83-5.72-6.52-5.72-5.55 0-8.23 2.3-9 7.67S1.43 28.76 7 28.76c4.7 0 7.12-1.72 8.13-5.73Zm15.09-5.9H28l.51-3.69h-2.16a4.85 4.85 0 0 0-3.78 1.65l-.39-1.39h-3.42l-2.08 14.76h4.37l1-7.38c.39-2.77 1.5-3.95 3.71-3.95Zm7 11.36 2.1-14.76h-4.37l-2.08 14.76Zm.81-21.31c-1.77 0-2.63.68-2.86 2.3s.45 2.3 2.22 2.3 2.63-.67 2.86-2.3-.43-2.3-2.2-2.3Zm53.61 21.31h3.43l2.07-14.76h-4.34l-1.2 8.3c-.35 2.48-1.41 3.54-3.21 3.54s-2.44-1.15-2-3.9l1.12-8H78.7l-1.12 8c-.7 5 .75 7.09 4.79 7.09a6.51 6.51 0 0 0 4.55-1.48l.37 1.15Zm11.37-2.95 9-9.36.34-2.45H95.41L95 16.65h7.38l-9 9.36-.38 2.45h13.11l.41-2.95Zm15.17 0 9-9.36.35-2.45h-12.56l-.41 2.95h7.38l-9 9.36-.35 2.45h13.11l.41-2.95Z" fill="#33a88d"/></g></g></svg>